<svg t="1571370236858" class="icon" viewBox="0 0 1024 1024" version="1.1" xmlns="http://www.w3.org/2000/svg" p-id="1420" width="36" height="36"><path d="M605.1 696.7H226.8V373.8c0-55.7 45.3-101.1 101.1-101.1H504c55.7 0 101.1 45.3 101.1 101.1v322.9z m-339-39.2h299.7V373.8c0-34.1-27.7-61.8-61.8-61.8H327.9c-34.1 0-61.8 27.7-61.8 61.8v283.7zM455.5 209.9h-82.4v-74.8c0-2.1 1.7-3.8 3.8-3.8h74.9c2.1 0 3.8 1.7 3.8 3.8v74.8zM840.5 331.6H730.6c-4.3 0-7.9-3.5-7.9-7.9v-78.5c0-4.3 3.5-7.9 7.9-7.9h109.9c4.3 0 7.9 3.5 7.9 7.9v78.5c0 4.4-3.6 7.9-7.9 7.9z m-102.1-15.7h94.2v-62.8h-94.2v62.8z" fill="#296AB3" p-id="1421"></path><path d="M816.9 253.1h-62.8c-4.3 0-7.9-3.5-7.9-7.9v-55c0-4.3 3.5-7.9 7.9-7.9h62.8c4.3 0 7.9 3.5 7.9 7.9v55c0 4.4-3.5 7.9-7.9 7.9zM762 237.4h47.1v-39.3H762v39.3z" fill="#296AB3" p-id="1422"></path><path d="M393.9 405.1c16.7-2.4 30.5-2.3 45.8 0 10.5 2.2 21 3.9 31.3 6.8 7.6 2.1 13.1 7.3 15.8 15.2 4.3 12.5 8.8 24.9 13.6 37.2 0.8 2.1 3.4 5.1 4.9 4.9 10-1.1 14.7 4.4 17.8 12.7 0.7 2.5 0.3 5.1 0 6.7-4.2 1.2-8.3 2.3-12.2 3.4 0.5 4.3 1.5 8.8 1.5 13.2 0.2 20.1 0.3 40.2-0.1 60.3-0.1 3.6-2.1 9.2-3.6 10.1-1.4 2.3-31.8 2.2-34.1 0.6-7.9-5.1-3-13.8-5.6-20.7H365.7c-2 7.4-3.2 19.8-5.6 20.7-5.3 2-33.4 2.1-35 0-2.1-1.5-3.6-7.6-3.9-11.5-0.6-8.5-0.2-17-0.2-25.5l0.6-47.5c-3-0.8-7.2-1.9-11.4-3-0.2-1.5-0.5-3.4 0-5.4 2.9-8.7 7.2-15.4 18.2-14 1.3 0.2 3.8-2.7 4.5-4.6 3.7-9.8 7.8-19.6 10.4-29.8 4.5-17.1 16.8-23.9 32.5-26.9 6.2-1.3 12.2-2 18.1-2.9z m-47.1 67.3c47.5 9.8 93 10.1 139.7 0-3.9-12.1-7.9-22.8-10.8-33.8-2.5-9.4-8.6-14.1-17.7-14.5-22.1-1-44.3-1.8-66.4-2-7.3-0.1-14.7 1.7-21.8 3.4-2.9 0.7-6.8 3-7.8 5.5-5.5 13.3-10 26.8-15.2 41.4z m9.1 51.4c0-0.2 0 0.3 0 0 3.8 0 7.8-0.1 11.4-1 2.6-0.6 5.9-2.7 6.8-5 0.6-1.6-1.9-5.7-4-6.7-8.7-4-17.6-7.7-26.7-10.7-4.5-1.5-9.6-1.2-11 5.3-2.1 9.4-0.1 14.7 6.9 16.2 5.4 1.2 11 1.4 16.6 1.9z m123 0c4.9-0.6 11-0.8 16.8-2.2 8-1.8 6.3-8.6 6.1-14.2-0.2-4.9-3.2-8.5-7.6-7.2-11 3.4-21.8 7.4-32.1 12.4-4.7 2.3-3 8.7 2.3 9.8 4.4 1 8.9 0.9 14.5 1.4z" fill="#F5A523" p-id="1423"></path><path d="M785.5 319.8c-6.5 0-11.8 5.3-11.8 11.8v541.7H432.2V838h-23.6v47.1c0 6.5 5.3 11.8 11.8 11.8h365.1c6.5 0 11.8-5.3 11.8-11.8V331.6c0-6.5-5.3-11.8-11.8-11.8z" fill="#296AB3" p-id="1424"></path><path d="M242.5 790.9c-5.8 0-10.5-4.7-10.5-10.5V715c0-5.8 4.7-10.5 10.5-10.5h355.9c5.8 0 10.5 4.7 10.5 10.5v65.4c0 5.8-4.7 10.5-10.5 10.5H447.9v39.3h150.5c27.4 0 49.7-22.3 49.7-49.7V715c0-27.4-22.3-49.7-49.7-49.7H242.5c-27.4 0-49.7 22.3-49.7 49.7v65.4c0 27.4 22.3 49.7 49.7 49.7h142.6v-39.3H242.5zM557.9 304.1H267.3V257c0-47.6 38.7-86.4 86.4-86.4h117.8c47.6 0 86.4 38.7 86.4 86.4v47.1z m-251.3-39.2h212V257c0-26-21.1-47.1-47.1-47.1H353.7c-26 0-47.1 21.1-47.1 47.1v7.9z" fill="#296AB3" p-id="1425"></path><path d="M228.1 445.5m-31.4 0a31.4 31.4 0 1 0 62.8 0 31.4 31.4 0 1 0-62.8 0Z" fill="#296AB3" p-id="1426"></path><path d="M605 445.5m-31.4 0a31.4 31.4 0 1 0 62.8 0 31.4 31.4 0 1 0-62.8 0Z" fill="#296AB3" p-id="1427"></path></svg>